<svg xmlns="http://www.w3.org/2000/svg" viewBox="0 0 386.11 175.87"><defs><style>.cls-1{isolation:isolate;}.cls-2{fill:#262858;}.cls-3{fill:#37398d;}.cls-4{fill:#fac93c;}.cls-5{fill:#c99767;}.cls-6{mix-blend-mode:multiply;}.cls-7{fill:#222752;}.cls-8{fill:#1d1d1b;}.cls-9{fill:#27348b;}</style></defs><g class="cls-1"><g id="Capa_1" data-name="Capa 1"><path class="cls-2" d="M470.52,493.94c-1.06-1.23-2.06-2.5-3.18-3.66q-18.06-18.6-36.15-37.15c1.61-4.45,3.4-4.8,6.81-1.11,12.1,13.09,24.4,26,37.52,38.09a5.64,5.64,0,0,1-1,3.83Z" transform="translate(-96.49 -354.83)"/><path class="cls-2" d="M114.61,429.43c-2.18,2-2.41,0-3.24-1.4-4.28-7.36-8.66-14.66-13.07-21.95-.38-.63-1.2-1-1.81-1.51v-2l4.85-4c4.64,7.48,9.15,15.05,14,22.41C117.42,424.21,117.49,426.83,114.61,429.43Z" transform="translate(-96.49 -354.83)"/><path class="cls-3" d="M114.61,429.43c2.88-2.6,2.81-5.22.7-8.45-4.82-7.36-9.33-14.93-14-22.41a87,87,0,0,1,36.53-16.47c13.31-2.47,26.46-2.48,38.08,6.48,7.11,5.48,10.77,12.3,10.3,21.25-.18,3.29-.48,5.88,4.2,2.81A21.89,21.89,0,0,1,203,409.53c1.62,0,3.9.32,4-1.78s-2.44-.56-3.55-1.34c1.83-1.19,3.2-2.44,3-5-.33-4.88-.26-9.78-.36-14.67,10.33-3.44,20.67-6.87,31-10.36.6-.21,1.49-.86,1.66-.19,1.74,6.68,3.65,1,5.4.08,1.4-.77,2.39-.47,3.53.55,5.14,4.55,10.46,8.91,15.49,13.58,2.18,2,4.21,3.42,6.81,1.26,2.24-1.86,1.41-3.92-.28-5.82-1.06-1.18-.78-2.29.26-3.46,7.16-8.08,14.13-16.32,21.46-24.24,4.39-4.76,6.37-4.28,9.73,1.18,2.45,4,4.86,8,7.68,11.75,2.08,2.76,1.35,4.27-1.29,5.73-4,2.19-7.89,4.43-11.82,6.68-.62.36-1.77.22-1.54,1.48.18,1,1,.81,1.56.74,4.13-.5,7.36,2.21,11.12,3q2.9,2.61,5.81,5.2c.58.51,1.11,1.47,2,.88.36-.24.25-1.2.33-1.83q1-7.48,1.93-15c14.83-.85,29.43-.18,43,6.82,10.32,5.33,17.09,13.32,17.87,25.33.13,2,.79,2.55,2.64,2.46,3.15-.17,6.3-.19,9.44-.28a23.72,23.72,0,0,1,14.4,5.61c2.41,2,4.56,4.32,6.91,6.41.75.66,1.28,2.37,2.7,1.33,1.7-1.25.16-2.32-.57-3.28-3.28-4.32-6.79-8.48-9.83-13-1.38-2-2.63-2.85-4.76-1.68-3.18,1.76-3.66,0-4.43-2.66-1.08-3.8.85-7.95-1.56-11.5,5.66-4,12.67-4.85,18.84-7.72,2.72-1.26,6.18-3.37,8.4-2.57s3.42,4.7,5.07,7.25q3.9,6,7.82,12.09c.8,2.23,2,2.23,3.68.78,5.86-5,11.92-9.86,17.22-15.52a1.93,1.93,0,0,1,2.51,1c5.48,9.26,10.87,18.57,16.4,27.8,1.26,2.11,1.11,3.16-1.19,4.48-5.43,3.12-10.95,6.14-16.5,8.92-4.72,2.36-1.89,3.44-.19,4.87,8.63,7.24,17.1,14.66,25.49,22.18,2.05,1.84,2.79,3.59,2.22,5.71-2.4,9.07-3.62,18.44-6.89,27.29C462.4,478,450.1,465.11,438,452c-3.41-3.69-5.2-3.34-6.81,1.11-4.39,4.86-7.37,10.88-12.51,15.13-3.57-2.32-5.5-6.05-8.07-9.24a8.92,8.92,0,0,0-1.46-1.17c.08.62.12,1.24.25,1.84.4,1.76.92,3.49,1.23,5.25.27,1.52.21,2.7-1.89,3.26a55,55,0,0,1-24.49,1.32,41.38,41.38,0,0,1-22.56-12.33l.13.13c-1.71-2.32-3-.09-4.05.62a42.24,42.24,0,0,1-11,5.4c-9.87,3.12-19.63,1.39-29.4-.25-5.73-1-6-1.74-4.95-7.53,1.29-6.92,2.39-13.88,3.4-20.84.09-.63,1.19-3.65-1.23-2.17-2.68,1.65-6,2.84-7.57,6-4,1.61-7.81,3.5-12.26,3.81-3.36.25-3.66,3.23-3.72,5.87-.09,4.93,0,9.87-.07,14.8,0,1,.81,2.36-.84,2.93-1-1.72-2.85-2.17-4.45-3q-18.84-9.29-37.71-18.54c-1.75-.86-4.39-2.74-5.15-2.17-1.71,1.26-.62,3.85-.47,5.9-.07,3.71-.3,7.41-.16,11.1.12,3-1.26,4.06-4,4-4.87-.64-9.46,1-14.17,1.71-3.23.49-6.42.76-6.07-4.24.11-1.56-.35-4.33-1.1-4.54-1.71-.47-3,1.48-4.44,2.56a10,10,0,0,0-1.29,1.45l-3.85,2.07c-4.29-.15-8.24,2.24-12.68,1.4-13.66-2.6-19.07-7.86-22.09-21.72-.23-1,.77-3.21-1.32-2.88-1.87.3-4.09,1.61-3.37,4,1.56,5.33,1.87,11.05,4.83,15.95-1.15,3.94,1.23,7.3,2.25,10.72,1.47,4.89-.51,7-4.53,8.17-5.39,1.55-10.84,2.83-16,5.17-3.2.26-4.07-2.1-5.11-4.39-7.82-17.32-15.79-34.57-23.41-52-1.6-3.65-2.82-4-5.32-1.15-.75.87-1.48,1.75-2.23,2.62A4,4,0,0,1,114.61,429.43Zm75.57-10c-7.1,3.94-10.7,10.31-11.77,18a17.57,17.57,0,0,0,18.58,20c9.18-.43,16-4.81,20.33-12.93,6-8.48,5.17-18.94-1.91-25.33C208.67,413.1,197.83,413.2,190.18,419.42Zm204.38,31.67a16,16,0,0,1-9.11-1.66c-.55-.26-1.3-.72-1.39-1.2-.25-1.33,1-.89,1.66-1.07,7-2,14-3.94,20.95-5.89,4.31-.12,5.1-2,3.55-5.92-4.15-10.51-15-16.91-27.46-15.87-9.21.1-15.23,5-18.6,13.07s-1.73,15.61,4.46,21.78c8.29,8.26,18.69,10.54,30,9.63,2.6-.25,4.8-.44,3.79-4.29C399.84,449.83,400,449.79,394.56,451.09Zm-83.41-24.43c3.49-1.77,3.28-3.6.22-5.67a13,13,0,0,1-3.31-3c-2.67-3.65-5-3.29-7.34.27a14.93,14.93,0,0,1-6.58,3.16c-1.11.18-2.91.38-3.29-.18-.79-1.13.8-1.91,1.5-2.69,4.47-5.07,9-10.06,13.55-15.08,3.61-2.7,2.9-4.85-.48-7.35-9-6.65-22.19-6.17-31.48,1.42-7.78,5-10,12.5-8.67,21,1.25,8.16,6.22,13.65,14.33,15.86C291.52,437.68,302,434.62,311.15,426.66ZM243,420.45c5-6.91,11.74-12.24,17.05-18.86,2.54-1.46,3-2.87.47-5a92.18,92.18,0,0,1-9.16-8.84c-2.62-2.93-4-1.74-5.25,1l-10.77,14.75c-.46.63-.73,1.7-1.7,1.44s-.54-1.38-.59-2.11c-.32-4.77-.52-9.55-.89-14.32-.09-1.05.47-3.13-1.85-2.48-5.55,1.56-11.06,3.25-16.57,4.95-2,.61-1.4,2.38-1.43,3.76,0,1.14.52,1.91,1.87,1.34,4.16-1.76,3.78.93,4.27,3.76,1,5.68-1.1,12.32,2.26,16.95,7.17,9.86,7.44,19.55,2.55,30.14-1.58,3.44-.9,7.61.54,10.51,1.18,2.37,5.09.13,7.79-.15.49-.05,1-.16,1.46-.24,3,.3,3-1.59,3-3.77,0-7.22-.59-14.45.34-21.66L280,453.26c3.21,2.37,5.34,2.76,4.7-2.41a18.41,18.41,0,0,1,.06-4.45c.4-3.23-.7-4.59-4.19-5.11-6.21-.92-11.87-3.83-15.51-8.9-2.89-4.05-6.57-6.18-10.91-7.79Zm111.92,30.93c1.87-1,2.8-1.91,2.18-4.57-2.94-12.55,1.24-22.6,11.77-30,1.41-1,2.65-1.87,2.5-3.88-.71-9.15-4.63-16.34-12.88-20.84-9.31-5.08-19.46-6.76-29.94-7.53-5-.37-6.9,1.42-6.51,6.16-.53,4.59-.92,9.2-1.67,13.76-.37,2.29-.43,3.91,2.4,4.27,3,.37,3.46,2.19,3,4.9-1.92,12.06-3.65,24.14-5.53,36.2-1.06,6.81-1.17,7.19,5.72,8C336.28,459,346.61,459.38,354.93,451.38Zm86.81-20.9,20-12.74c1.9-.86,3.71-1.57,1.87-4.26-3.17-4.62-6.16-9.37-9.12-14.13-1.59-2.55-2.76-1.51-4,.22-5.22,4.81-10.52,9.54-15.62,14.47-2,1.92-2.86,1.85-4.28-.61-4.08-7.12-8.44-14.07-12.72-21.07-.62-1-.77-2.77-2.71-2-5.37,2.09-10.78,4.1-16.08,6.35-2.15.91-1,2.78-.67,4.33.41,2.19,1.7,1.6,2.9.9,2.24-1.31,3.13.13,4.29,1.7,5.09,6.89,10.15,13.81,15.53,20.48,2,2.5,1.73,4-.85,5.28-3.7,1.81-4.45,4.29-2.69,7.95.69,1.43.61,3.22,1,4.82.5,2.14-.25,3.22-2.41,3.94-6.36,2.14-6.33,2.24-2.38,7.5.49.65,1.08,1.22,1.62,1.83,1.06,2.51,2.26,2.58,4.07.52,4.63-5.27,9.41-10.42,14.13-15.62,1.93.09,2.67,1.78,3.77,2.91q16.09,16.38,32.11,32.83c1.08,1,1.8,4.14,3.27,0,4.17-11.79,4.09-12.74-4.78-20.93-2.67-2.46-5.51-4.76-8.08-7.32C454,441.9,446.81,437.28,441.74,430.48ZM164.47,471.34c2.41-.09,3.71-.95,2.77-3.65a40.27,40.27,0,0,1-1.36-5.18c-1.66-8.09-5.17-15.76-5.51-24.14,5.71-3.57,10.73-7.82,14-13.83,11-13.55,5-31.75-12.16-35.6-16.37-3.67-31.67.12-45.94,8.57-5.68,2.77-5.69,2.78-2.62,8.08,1.57,2.71,3.34,5.31,4.73,8.1,1.26,2.52,2.74,3.61,5.23,1.71,3.18-2.45,4.2-.42,5.37,2.21,7.24,16.24,14.58,32.44,21.89,48.65,4,8.83,4,8.83,13.25,5.42C164.25,471.63,164.35,471.46,164.47,471.34ZM300,373c-.95-2.32-2-4.84-4.11-6.15-1.72-1.07-2.8,1.22-3.81,2.38-3,3.48-5.9,7.06-8.81,10.63-.48.59-1.15,1.2-.48,2.12.43.59,1,1,1.64.73,4.94-2.52,10.19-4.47,14.6-7.92C299.53,374.41,299.68,373.64,300,373Z" transform="translate(-96.49 -354.83)"/><path class="cls-2" d="M392.64,393.53c2.41,3.55.48,7.7,1.56,11.5.77,2.68,1.25,4.42,4.43,2.66,2.13-1.17,3.38-.35,4.76,1.68,3,4.48,6.55,8.64,9.83,13,.73,1,2.27,2,.57,3.28-1.42,1-2-.67-2.7-1.33-2.35-2.09-4.5-4.39-6.91-6.41a23.72,23.72,0,0,0-14.4-5.61c-.36-3.68.38-7.39-.91-11.09C387.67,397.73,389.88,395.35,392.64,393.53Z" transform="translate(-96.49 -354.83)"/><path class="cls-2" d="M316.86,377.93q-1,7.49-1.93,15c-.08.63,0,1.59-.33,1.83-.87.59-1.4-.37-2-.88q-2.91-2.6-5.81-5.2C304.24,380.92,307.05,377.92,316.86,377.93Z" transform="translate(-96.49 -354.83)"/><path class="cls-2" d="M206.05,386.7c.1,4.89,0,9.79.36,14.67.18,2.6-1.19,3.85-3,5-1.65,1-3.31,2.19-3.19-1.32a58.22,58.22,0,0,0-.08-10.4C199.41,389.79,201.6,387.54,206.05,386.7Z" transform="translate(-96.49 -354.83)"/><path class="cls-2" d="M453.67,387.84c-5.3,5.66-11.36,10.48-17.22,15.52-1.69,1.45-2.88,1.45-3.68-.78,4.85-3.58,8.42-8.52,13.26-12.21C448.54,388.45,450.71,387.48,453.67,387.84Z" transform="translate(-96.49 -354.83)"/><path class="cls-2" d="M118.28,428.26c.75-.87,1.48-1.75,2.23-2.62,2.5-2.88,3.72-2.5,5.32,1.15,7.62,17.4,15.59,34.65,23.41,52,1,2.29,1.91,4.65,5.11,4.39-1.49.88-2.89,2.27-4.48,2.52-2.67.43-5.08,1.32-6.86-3-6.67-16.11-14.13-31.9-21.43-47.75C120.55,432.7,120.69,429.83,118.28,428.26Z" transform="translate(-96.49 -354.83)"/><path class="cls-2" d="M307,438.59c1.54-3.2,4.89-4.39,7.57-6,2.42-1.48,1.32,1.54,1.23,2.17-1,7-2.11,13.92-3.4,20.84-1.08,5.79-.78,6.56,4.95,7.53,9.77,1.64,19.53,3.37,29.4.25a42.24,42.24,0,0,0,11-5.4c1.05-.71,2.34-2.94,4.05-.62-6.08,5.36-12.53,9.8-20.87,11.33-11.78,2.15-23.25,1.05-34.69-1.88-2.87-.74-2.57-3-2.09-5.06C306,454.1,306.44,446.35,307,438.59Z" transform="translate(-96.49 -354.83)"/><path class="cls-2" d="M242.31,448.23c-.15-2.05-1.24-4.64.47-5.9.76-.57,3.4,1.31,5.15,2.17q18.87,9.24,37.71,18.54c1.6.79,3.46,1.24,4.45,3-3.51,2.41-6.67,2.43-10.72.32C267.19,460,254.69,454.22,242.31,448.23Z" transform="translate(-96.49 -354.83)"/><path class="cls-2" d="M172.59,459.09c-3-4.9-3.27-10.62-4.83-15.95-.72-2.43,1.5-3.74,3.37-4,2.09-.33,1.09,1.86,1.32,2.88,3,13.86,8.43,19.12,22.09,21.72,4.44.84,8.39-1.55,12.68-1.4-8.58,8.11-22.86,7.56-31.44-.18C174.69,461.14,173.65,460.1,172.59,459.09Z" transform="translate(-96.49 -354.83)"/><path class="cls-2" d="M361.69,457.19a41.38,41.38,0,0,0,22.56,12.33,55,55,0,0,0,24.49-1.32c2.1-.56,2.16-1.74,1.89-3.26-.31-1.76-.83-3.49-1.23-5.25-.13-.6-.17-1.22-.25-1.84a8.92,8.92,0,0,1,1.46,1.17c2.57,3.19,4.5,6.92,8.07,9.24,0,2.4-.53,4.78-2.92,5.68s-2.69-1.75-3.8-3c-.67-.76-1.81-1.51-2.18,0-.6,2.43-2.83,2.47-4.24,2.62-15,1.56-29.42.86-40.82-11A10,10,0,0,1,361.69,457.19Z" transform="translate(-96.49 -354.83)"/><path class="cls-2" d="M211.07,460.23a10,10,0,0,1,1.29-1.45c1.4-1.08,2.73-3,4.44-2.56.75.21,1.21,3,1.1,4.54-.35,5,2.84,4.73,6.07,4.24,4.71-.7,9.3-2.35,14.17-1.71-.45,2.87-3.12,2.41-4.81,2.73-6,1.1-12.08,1.36-18,3-1.55.42-2.71.31-3.4-2.08S211.57,462.41,211.07,460.23Z" transform="translate(-96.49 -354.83)"/><path class="cls-4" d="M174.36,424.54c-3.26,6-8.28,10.26-14,13.83-3.38,1.49-3.67,4-2.77,7.26,2.37,8.55,4.59,17.14,6.87,25.71-.12.12-.22.29-.36.34-9.26,3.41-9.27,3.41-13.25-5.42-7.31-16.21-14.65-32.41-21.89-48.65-1.17-2.63-2.19-4.66-5.37-2.21-2.49,1.9-4,.81-5.23-1.71-1.39-2.79-3.16-5.39-4.73-8.1-3.07-5.3-3.06-5.31,2.62-8.08,1.78.36,3.19-.61,4.71-1.24,12-5,24.28-7.18,37.24-4.67,10.91,2.11,19.59,12,19.11,22.06C177.13,417.52,175.27,420.89,174.36,424.54Zm-24.06-16c-2.33,1.4-2.18,3.45-1.5,5.64,1.73,5.48,3.72,10.9,5.1,16.46,1.1,4.46,2.35,4.1,4.43.74a104,104,0,0,0,7.72-7.56c3-3.57,3.17-7.86,1.35-12s-5.42-5.37-9.69-5.39A11.81,11.81,0,0,0,150.3,408.53Z" transform="translate(-96.49 -354.83)"/><path class="cls-4" d="M415.44,455.42c-.54-.61-1.13-1.18-1.62-1.83-3.95-5.26-4-5.36,2.38-7.5,2.16-.72,2.91-1.8,2.41-3.94-.37-1.6-.29-3.39-1-4.82-1.76-3.66-1-6.14,2.69-7.95,2.58-1.25,2.86-2.78.85-5.28-5.38-6.67-10.44-13.59-15.53-20.48-1.16-1.57-2.05-3-4.29-1.7-1.2.7-2.49,1.29-2.9-.9-.29-1.55-1.48-3.42.67-4.33,5.3-2.25,10.71-4.26,16.08-6.35,1.94-.75,2.09,1,2.71,2,4.28,7,8.64,13.95,12.72,21.07,1.42,2.46,2.29,2.53,4.28.61,5.1-4.93,10.4-9.66,15.62-14.47,5,5.31,7.65,12,11.24,18.17l-20,12.74c-3.22,1.61-3.58,2.74-.37,5.43,10.05,8.43,19.68,17.36,29.47,26.1,1,.91,2.05,2,1.62,3.37-1.07,3.54-.72,7.47-2.94,10.68q-16-16.43-32.11-32.83c-1.1-1.13-1.84-2.82-3.77-2.91-2.77-1.12-4.21.89-5.92,2.4C423.29,446.64,420.61,452.22,415.44,455.42Z" transform="translate(-96.49 -354.83)"/><path class="cls-4" d="M354.93,451.38c-8.32,8-18.65,7.6-28.94,6.42-6.89-.78-6.78-1.16-5.72-8,1.88-12.06,3.61-24.14,5.53-36.2.44-2.71,0-4.53-3-4.9-2.83-.36-2.77-2-2.4-4.27.75-4.56,1.14-9.17,1.67-13.76,2.05-1.59,4.51-1.3,6.71-.94,6.49,1.06,13.06,1.54,19.43,3.4,9.53,2.77,15.69,8.39,17.93,18.27.61,2.7.26,4-2,5.67-5.75,4.28-9,10.1-10.47,17.28C352.39,440.36,354.91,445.7,354.93,451.38Zm-20.07-4.16c2.65-1,5.3-1.86,7.93-2.85a12.36,12.36,0,0,0,8.15-9.77c1.6-8.46-5.24-14.44-15.8-14a5,5,0,0,0-4.16,4.81c-.76,7.12-1.39,14.25-2.39,21.33-.35,2.42.62,2.68,2.3,2.18C332.25,448.55,333.87,448.53,334.86,447.22Z" transform="translate(-96.49 -354.83)"/><path class="cls-4" d="M233.06,457c-.48.08-1,.19-1.46.24-2.7.28-6.61,2.52-7.79.15-1.44-2.9-2.12-7.07-.54-10.51,4.89-10.59,4.62-20.28-2.55-30.14-3.36-4.63-1.28-11.27-2.26-16.95-.49-2.83-.11-5.52-4.27-3.76-1.35.57-1.9-.2-1.87-1.34,0-1.38-.54-3.15,1.43-3.76,5.51-1.7,11-3.39,16.57-4.95,2.32-.65,1.76,1.43,1.85,2.48.37,4.77.57,9.55.89,14.32.05.73-.46,1.83.59,2.11s1.24-.81,1.7-1.44l10.77-14.75,13.94,12.88c-5.31,6.62-12.06,12-17.05,18.86-2.4,1.65-3.59,2.59.39,4.26,5.77,2.41,12.86,2.7,16.82,8.39a26.62,26.62,0,0,0,17.33,11.15c4.28.88,5.5,5.37,2.41,9l-43.53-21.68c-3,.85-3.29,3.18-3.29,5.78C233.16,443.91,233.1,450.46,233.06,457Z" transform="translate(-96.49 -354.83)"/><path class="cls-4" d="M305.9,403.49c-4.53,5-9.08,10-13.55,15.08-.7.78-2.29,1.56-1.5,2.69.38.56,2.18.36,3.29.18a14.93,14.93,0,0,0,6.58-3.16c4.42,1.63,7,5.5,10.43,8.38-9.18,8-19.63,11-31.55,7.77-8.11-2.21-13.08-7.7-14.33-15.86-1.3-8.51.89-16,8.67-21,5.7-2.24,11.58-3.83,17.73-2.9C297.57,395.56,302.93,397.71,305.9,403.49Zm-30.86,11c-.47,2.94,1.5,5.29,3.64,6.67,2.51,1.62,4-1.17,5.47-2.85,3.3-3.69,6.4-7.6,10-11,3.09-3,1.61-4.2-1.24-5.66C286.15,398.21,275.18,403.1,275,414.49Z" transform="translate(-96.49 -354.83)"/><path class="cls-4" d="M398.65,464c-11.34.91-21.74-1.37-30-9.63-6.19-6.17-7.84-13.74-4.46-21.78s9.39-13,18.6-13.07c1,1.14,2.45.75,3.72.94,9.71,1.45,21.31,11.22,20.19,20.85-7,2-14,3.89-20.95,5.89-.62.18-1.91-.26-1.66,1.07.09.48.84.94,1.39,1.2a16,16,0,0,0,9.11,1.66C397.58,454.86,398.18,459.39,398.65,464Zm-11.51-36.48a17.65,17.65,0,0,0-11.94,5c-2.65,2.72-2.45,6.25-1.43,9,1.28,3.43,4.54,1.28,6.91.64,4-1.08,7.88-2.38,11.8-3.64,1.77-.56,4.64-.26,4.91-2.23.29-2.15-1.43-4.27-3.22-5.83A12.6,12.6,0,0,0,387.14,427.48Z" transform="translate(-96.49 -354.83)"/><path class="cls-4" d="M217.32,444.5C213,452.62,206.17,457,197,457.43a17.57,17.57,0,0,1-18.58-20c1.07-7.67,4.67-14,11.77-18,1.76-.34,3.54-.63,5.3-1,12.89-3,23.12,5.21,22.7,18.34C218.09,439.32,217.62,441.91,217.32,444.5Zm-12-5.07c1.18.11,2.23,0,2.69-1.35,2.9-2.44,4.88-5.34,4.49-9.34-.1-1-.19-2.62-.61-2.73-1.62-.43-1.32,1.38-1.89,2.19-2.27,3.19-5.11,3.95-8.57,2.16-2.89-1.48-4-3.76-2.79-6.93.35-.93,2.3-1.57,1.06-2.68-1-.84-2.6-.49-3.67.43-1.48,1.28-2.81,2.73-4.21,4.1-4.9,5.06-4.85,9.67.15,14.27,4.24,3.9,9.74,3.87,13.28-.09Z" transform="translate(-96.49 -354.83)"/><path class="cls-5" d="M354.93,451.38c0-5.68-2.54-11-1.3-17,1.49-7.18,4.72-13,10.47-17.28,2.28-1.7,2.63-3,2-5.67-2.24-9.88-8.4-15.5-17.93-18.27-6.37-1.86-12.94-2.34-19.43-3.4-2.2-.36-4.66-.65-6.71.94-.39-4.74,1.48-6.53,6.51-6.16,10.48.77,20.63,2.45,29.94,7.53,8.25,4.5,12.17,11.69,12.88,20.84.15,2-1.09,2.88-2.5,3.88-10.53,7.42-14.71,17.47-11.77,30C357.73,449.47,356.8,450.4,354.93,451.38Z" transform="translate(-96.49 -354.83)"/><path class="cls-5" d="M174.36,424.54c.91-3.65,2.77-7,3-10.88.48-10.05-8.2-20-19.11-22.06-13-2.51-25.26-.29-37.24,4.67-1.52.63-2.93,1.6-4.71,1.24,14.27-8.45,29.57-12.24,45.94-8.57C179.41,392.79,185.4,411,174.36,424.54Z" transform="translate(-96.49 -354.83)"/><path class="cls-5" d="M280,453.26c3.09-3.64,1.87-8.13-2.41-9a26.62,26.62,0,0,1-17.33-11.15c-4-5.69-11.05-6-16.82-8.39-4-1.67-2.79-2.61-.39-4.26l11.1,4.15c4.34,1.61,8,3.74,10.91,7.79,3.64,5.07,9.3,8,15.51,8.9,3.49.52,4.59,1.88,4.19,5.11a18.41,18.41,0,0,0-.06,4.45C285.3,456,283.17,455.63,280,453.26Z" transform="translate(-96.49 -354.83)"/><path class="cls-5" d="M469.52,476.06c2.22-3.21,1.87-7.14,2.94-10.68.43-1.4-.6-2.46-1.62-3.37-9.79-8.74-19.42-17.67-29.47-26.1-3.21-2.69-2.85-3.82.37-5.43,5.07,6.8,12.25,11.42,18.19,17.32,2.57,2.56,5.41,4.86,8.08,7.32,8.87,8.19,8.95,9.14,4.78,20.93C471.32,480.2,470.6,477.07,469.52,476.06Z" transform="translate(-96.49 -354.83)"/><path class="cls-5" d="M217.32,444.5c.3-2.59.77-5.18.86-7.78.42-13.13-9.81-21.35-22.7-18.34-1.76.41-3.54.7-5.3,1,7.65-6.22,18.49-6.32,25.23-.25C222.49,425.56,223.28,436,217.32,444.5Z" transform="translate(-96.49 -354.83)"/><path class="cls-4" d="M300,373c-.35.66-.5,1.43-1,1.79-4.41,3.45-9.66,5.4-14.6,7.92-.61.31-1.21-.14-1.64-.73-.67-.92,0-1.53.48-2.12,2.91-3.57,5.8-7.15,8.81-10.63,1-1.16,2.09-3.45,3.81-2.38C298,368.14,299.08,370.66,300,373Z" transform="translate(-96.49 -354.83)"/><path class="cls-5" d="M164.47,471.34c-2.28-8.57-4.5-17.16-6.87-25.71-.9-3.22-.61-5.77,2.77-7.26.34,8.38,3.85,16.05,5.51,24.14a40.27,40.27,0,0,0,1.36,5.18C168.18,470.39,166.88,471.25,164.47,471.34Z" transform="translate(-96.49 -354.83)"/><path class="cls-5" d="M305.9,403.49c-3-5.78-8.33-7.93-14.23-8.83-6.15-.93-12,.66-17.73,2.9,9.29-7.59,22.48-8.07,31.48-1.42C308.8,398.64,309.51,400.79,305.9,403.49Z" transform="translate(-96.49 -354.83)"/><path class="cls-5" d="M406.67,441.27c1.12-9.63-10.48-19.4-20.19-20.85-1.27-.19-2.69.2-3.72-.94,12.49-1,23.31,5.36,27.46,15.87C411.77,439.27,411,441.15,406.67,441.27Z" transform="translate(-96.49 -354.83)"/><path class="cls-5" d="M260.06,401.59l-13.94-12.88c1.29-2.74,2.63-3.93,5.25-1a92.18,92.18,0,0,0,9.16,8.84C263.1,398.72,262.6,400.13,260.06,401.59Z" transform="translate(-96.49 -354.83)"/><path class="cls-5" d="M233.06,457c0-6.55.1-13.1.08-19.65,0-2.6.27-4.93,3.29-5.78-.93,7.21-.31,14.44-.34,21.66C236.08,455.42,236.05,457.31,233.06,457Z" transform="translate(-96.49 -354.83)"/><path class="cls-5" d="M461.77,417.74c-3.59-6.15-6.27-12.86-11.24-18.17,1.23-1.73,2.4-2.77,4-.22,3,4.76,6,9.51,9.12,14.13C465.48,416.17,463.67,416.88,461.77,417.74Z" transform="translate(-96.49 -354.83)"/><path class="cls-5" d="M415.44,455.42c5.17-3.2,7.85-8.78,12.28-12.7,1.71-1.51,3.15-3.52,5.92-2.4-4.72,5.2-9.5,10.35-14.13,15.62C417.7,458,416.5,457.93,415.44,455.42Z" transform="translate(-96.49 -354.83)"/><path class="cls-5" d="M311.15,426.66c-3.4-2.88-6-6.75-10.43-8.38,2.32-3.56,4.67-3.92,7.34-.27a13,13,0,0,0,3.31,3C314.43,423.06,314.64,424.89,311.15,426.66Z" transform="translate(-96.49 -354.83)"/><path class="cls-5" d="M398.65,464c-.47-4.57-1.07-9.1-4.09-12.87,5.42-1.3,5.28-1.26,7.88,8.58C403.45,463.52,401.25,463.71,398.65,464Z" transform="translate(-96.49 -354.83)"/><path class="cls-3" d="M150.3,408.53a11.81,11.81,0,0,1,7.41-2.1c4.27,0,7.9,1.32,9.69,5.39s1.65,8.42-1.35,12a104,104,0,0,1-7.72,7.56c-1.59-.42-1.72-1.82-2.1-3.07Q153.27,418.42,150.3,408.53Z" transform="translate(-96.49 -354.83)"/><path class="cls-5" d="M150.3,408.53q3,9.89,5.93,19.77c.38,1.25.51,2.65,2.1,3.07-2.08,3.36-3.33,3.72-4.43-.74-1.38-5.56-3.37-11-5.1-16.46C148.12,412,148,409.93,150.3,408.53Z" transform="translate(-96.49 -354.83)"/><path class="cls-3" d="M335.14,420.65c10.56-.49,17.4,5.49,15.8,14a12.36,12.36,0,0,1-8.15,9.77c-2.63,1-5.28,1.9-7.93,2.85-2.27.34-3.21-.26-2.83-2.87C333.21,436.47,334.12,428.55,335.14,420.65Z" transform="translate(-96.49 -354.83)"/><path class="cls-5" d="M335.14,420.65c-1,7.9-1.93,15.82-3.11,23.7-.38,2.61.56,3.21,2.83,2.87-1,1.31-2.61,1.33-4,1.75-1.68.5-2.65.24-2.3-2.18,1-7.08,1.63-14.21,2.39-21.33A5,5,0,0,1,335.14,420.65Z" transform="translate(-96.49 -354.83)"/><path class="cls-3" d="M275,414.49c.14-11.39,11.11-16.28,17.83-12.86,2.85,1.46,4.33,2.69,1.24,5.66-3.56,3.42-6.66,7.33-10,11-1.49,1.68-3,4.47-5.47,2.85C276.54,419.78,274.57,417.43,275,414.49Z" transform="translate(-96.49 -354.83)"/><path class="cls-3" d="M387.14,427.48a12.6,12.6,0,0,1,7,2.93c1.79,1.56,3.51,3.68,3.22,5.83-.27,2-3.14,1.67-4.91,2.23-3.92,1.26-7.83,2.56-11.8,3.64-2.37.64-5.63,2.79-6.91-.64-1-2.75-1.22-6.28,1.43-9A17.65,17.65,0,0,1,387.14,427.48Z" transform="translate(-96.49 -354.83)"/><path class="cls-3" d="M191.86,425.28c1.4-1.37,2.73-2.82,4.21-4.1,1.07-.92,2.72-1.27,3.67-.43,1.24,1.11-.71,1.75-1.06,2.68-1.2,3.17-.1,5.45,2.79,6.93,3.46,1.79,6.3,1,8.57-2.16.57-.81.27-2.62,1.89-2.19.42.11.51,1.77.61,2.73.39,4-1.59,6.9-4.49,9.34-1,.31-2.17.16-2.69,1.35l-.07,0C194,439.09,189.86,434.69,191.86,425.28Z" transform="translate(-96.49 -354.83)"/><path class="cls-5" d="M191.86,425.28c-2,9.41,2.16,13.81,13.43,14.18-3.54,4-9,4-13.28.09C187,435,187,430.34,191.86,425.28Z" transform="translate(-96.49 -354.83)"/><path class="cls-5" d="M205.36,439.43c.52-1.19,1.72-1,2.69-1.35C207.59,439.39,206.54,439.54,205.36,439.43Z" transform="translate(-96.49 -354.83)"/><g class="cls-6"><path class="cls-7" d="M253.78,464.25a20.19,20.19,0,0,1,5.61,5.51,39.32,39.32,0,0,1,3.86,6.5c.91,2,1.51,3.43,1.8,4.3l-18,4a3.88,3.88,0,0,0-2.58-3.2,12.9,12.9,0,0,0-4.47-.78q-12.33,1.17-12.33,14.71.34,10.74,6.75,12a10.4,10.4,0,0,0,5.54-1.51,14.26,14.26,0,0,0,4.24-4,24.07,24.07,0,0,0,2.94-5.61l18,3.64c-.2.65-.67,1.94-1.41,3.88q-1.26,3.25-5.9,8.7a25.83,25.83,0,0,1-10.32,7.62,37.2,37.2,0,0,1-13.59,2.67,28.87,28.87,0,0,1-19.14-7,19.75,19.75,0,0,1-5.51-7.67,24.93,24.93,0,0,1-1.72-9.23,35.86,35.86,0,0,1,1.41-9.95,51.82,51.82,0,0,1,3.44-8.94,44.84,44.84,0,0,1,5.88-9,33.89,33.89,0,0,1,6.73-6.06,27.16,27.16,0,0,1,7.21-3.48,25.62,25.62,0,0,1,7.42-1.11A25.91,25.91,0,0,1,253.78,464.25Z" transform="translate(-96.49 -354.83)"/><path class="cls-7" d="M233.93,530.7c-8.8,0-20.53-6.57-23.11-8.09l-1.11-.6-.93-1c-1.21-1.32-5.45-6.11-7-10.11a33,33,0,0,1-2.29-12.19,44.24,44.24,0,0,1,1.72-12.18,59.7,59.7,0,0,1,4-10.36,52.66,52.66,0,0,1,7-10.59,42.17,42.17,0,0,1,8.35-7.51,35.43,35.43,0,0,1,9.36-4.49,33.78,33.78,0,0,1,9.77-1.46c6.53,0,15.69,4,17.46,4.79l.54.27.62.34.57.46a43,43,0,0,1,7.15,7.13,47.66,47.66,0,0,1,4.62,7.84c1,2.18,1.94,4.62,2,4.73l.13.35,1.08,3.23-3.12,6.07-3.89,1.17-7.94,1.75,7.7,1.56,3.71.57,3.86,6.88-1.41,3.4c-.22.62-.79,2.24-1.42,3.9-1.21,3.12-3.53,6.62-7.3,11a33.79,33.79,0,0,1-13.57,9.93A45.42,45.42,0,0,1,233.93,530.7Zm-14-21.49a67.34,67.34,0,0,0,9.26,4.22c-2-1.61-9.33-8-9.64-17.9v-.26c0-13.5,14.62-20.92,16.9-22l2.2-1.1,2.3.35a27.44,27.44,0,0,1,6.26,1.21,10.57,10.57,0,0,1,3.09,1.79l2.81-.62-.33-.47a26.13,26.13,0,0,0-3.3-3.24c-3.47-1.47-8.05-2.95-9.85-2.95a17.6,17.6,0,0,0-5.08.77,19.33,19.33,0,0,0-5.06,2.46,26,26,0,0,0-5.1,4.63,37,37,0,0,0-4.79,7.34,43.92,43.92,0,0,0-2.88,7.5,28.23,28.23,0,0,0-1.09,7.72,16.78,16.78,0,0,0,1.16,6.26A27.85,27.85,0,0,0,220,509.21Zm31.58-4c-.25.41-.5.8-.75,1.14a22,22,0,0,1-6.42,6.1l.21-.08a17.58,17.58,0,0,0,7.1-5.33c.48-.56.9-1.07,1.28-1.54Zm-15.79-10.08A6.23,6.23,0,0,0,236.8,498a8.52,8.52,0,0,0,.8-1,38.93,38.93,0,0,0,2.1-4.13l1-2.47-.32-.77C238,491.33,235.85,493.53,235.75,495.16Z" transform="translate(-96.49 -354.83)"/><path class="cls-7" d="M253.78,464.25a20.19,20.19,0,0,1,5.61,5.51,39.32,39.32,0,0,1,3.86,6.5c.91,2,1.51,3.43,1.8,4.3l-18,4a3.88,3.88,0,0,0-2.58-3.2,12.9,12.9,0,0,0-4.47-.78q-12.33,1.17-12.33,14.71.34,10.74,6.75,12a10.4,10.4,0,0,0,5.54-1.51,14.26,14.26,0,0,0,4.24-4,24.07,24.07,0,0,0,2.94-5.61l18,3.64c-.2.65-.67,1.94-1.41,3.88q-1.26,3.25-5.9,8.7a25.83,25.83,0,0,1-10.32,7.62,37.2,37.2,0,0,1-13.59,2.67,28.87,28.87,0,0,1-19.14-7,19.75,19.75,0,0,1-5.51-7.67,24.93,24.93,0,0,1-1.72-9.23,35.86,35.86,0,0,1,1.41-9.95,51.82,51.82,0,0,1,3.44-8.94,44.84,44.84,0,0,1,5.88-9,33.89,33.89,0,0,1,6.73-6.06,27.16,27.16,0,0,1,7.21-3.48,25.62,25.62,0,0,1,7.42-1.11A25.91,25.91,0,0,1,253.78,464.25Z" transform="translate(-96.49 -354.83)"/><path class="cls-7" d="M332,496.09l-3.62,22.62-15.7-3.05,6.21-36.38L319,479c.13-.94.24-1.63.35-2.07l1.71-9.92-5.32-.34,3.31-6.36,19-1.68-.77,5.19a23.67,23.67,0,0,1,8.7.41,26.53,26.53,0,0,1,9.85,4.81,11,11,0,0,1,3.31,3.78,11.72,11.72,0,0,1,1.29,4.54,15.54,15.54,0,0,1-.39,4.79,18.8,18.8,0,0,1-1.32,3.74,17.45,17.45,0,0,1-1.9,3.14,11,11,0,0,1-2.25,2.23,27.59,27.59,0,0,1-7.67,4.12,26,26,0,0,1-7.61,1.44A26.74,26.74,0,0,1,332,496.09Zm3.53-21.91a6,6,0,0,0,.15,3.23,5.54,5.54,0,0,0,1.47,2.53,12,12,0,0,0,4.91,2.66,7.72,7.72,0,0,0,4.67-.27,8.83,8.83,0,0,0,3.7-2.67,9.45,9.45,0,0,0,2-3.83,7.75,7.75,0,0,0,.19-2.64,7.57,7.57,0,0,1-3.42,3.09,6.28,6.28,0,0,1-4.2.69,3.54,3.54,0,0,1-1.57-.79,2.62,2.62,0,0,1-.48-2.56,4,4,0,0,1,1.65-2.26,7.19,7.19,0,0,1,3.81-1.16,14.06,14.06,0,0,0-5.41-.29,12.55,12.55,0,0,0-4.63,1.56A7,7,0,0,0,335.56,474.18Z" transform="translate(-96.49 -354.83)"/><path class="cls-7" d="M335.11,528l-8.25-1.37-15.58-3-7.87-1.31,1.32-8,6.86-40.07-1.29-.19-3.74-7.84,2.11-3.51,3.43-6.55,2-3.3,4.25-.61,18.73-1.66,3.84-.54,5.75,5.87,0,.21q.63.11,1.2.24c4.11,1,9.8,4.3,11.9,5.59l.49.25,1.05.87a25.33,25.33,0,0,1,5,6,19.87,19.87,0,0,1,2.17,7.66,23.51,23.51,0,0,1-.6,7.27,26.59,26.59,0,0,1-1.89,5.36,21.83,21.83,0,0,1-5.93,7.8l-.71.71-.81.41a53,53,0,0,1-9.07,4.73,34.46,34.46,0,0,1-10,1.87h-.67Zm-1.72-39.9c.64.11,1.36.22,2.08.31-1-.59-2-1.23-2.84-1.8l-1-.65-.8-1a17.5,17.5,0,0,1-2.86-5.15,16.85,16.85,0,0,1-.54-2.37l-1.62,9.41Zm-4.23-20.59-.37,2.19a13.49,13.49,0,0,1,1.32-1.81l-.37-.43Z" transform="translate(-96.49 -354.83)"/><path class="cls-7" d="M332,496.09l-3.62,22.62-15.7-3.05,6.21-36.38L319,479c.13-.94.24-1.63.35-2.07l1.71-9.92-5.32-.34,3.31-6.36,19-1.68-.77,5.19a23.67,23.67,0,0,1,8.7.41,26.53,26.53,0,0,1,9.85,4.81,11,11,0,0,1,3.31,3.78,11.72,11.72,0,0,1,1.29,4.54,15.54,15.54,0,0,1-.39,4.79,18.8,18.8,0,0,1-1.32,3.74,17.45,17.45,0,0,1-1.9,3.14,11,11,0,0,1-2.25,2.23,27.59,27.59,0,0,1-7.67,4.12,26,26,0,0,1-7.61,1.44A26.74,26.74,0,0,1,332,496.09Zm3.53-21.91a6,6,0,0,0,.15,3.23,5.54,5.54,0,0,0,1.47,2.53,12,12,0,0,0,4.91,2.66,7.72,7.72,0,0,0,4.67-.27,8.83,8.83,0,0,0,3.7-2.67,9.45,9.45,0,0,0,2-3.83,7.75,7.75,0,0,0,.19-2.64,7.57,7.57,0,0,1-3.42,3.09,6.28,6.28,0,0,1-4.2.69,3.54,3.54,0,0,1-1.57-.79,2.62,2.62,0,0,1-.48-2.56,4,4,0,0,1,1.65-2.26,7.19,7.19,0,0,1,3.81-1.16,14.06,14.06,0,0,0-5.41-.29,12.55,12.55,0,0,0-4.63,1.56A7,7,0,0,0,335.56,474.18Z" transform="translate(-96.49 -354.83)"/><path class="cls-7" d="M316.54,475.45l-13.64,8.12a13.6,13.6,0,0,0-2.44-4.42,4.59,4.59,0,0,0-3.3-1.92c-1.65-.07-3.1,1.18-4.33,3.74s-1.91,6.84-2.16,13.11q-.27,6.59,0,15.53L272.14,511a152.47,152.47,0,0,1-.77-20.81c0-1,.15-2.38.32-4.14l.22-22,14.87-1.24,2,2.57c1.79-.53,3.43-1,4.94-1.34s2.93-.65,4.24-.84a20,20,0,0,1,3.82-.23,12.65,12.65,0,0,1,6.48,2,24.8,24.8,0,0,1,5.5,4.38A12.52,12.52,0,0,1,316.54,475.45Z" transform="translate(-96.49 -354.83)"/><path class="cls-7" d="M269.88,519.54l-5.55-4.42-.26-3.55c0-.63-1-15.26-.78-21.7,0-1,.23-3.19.32-4.21l.28-28.55,7.36-1.12,14.61-1.22,4.34-.62,1.63,2h0c1.75-.42,3.41-.75,4.94-1a27.82,27.82,0,0,1,5.35-.31,20.56,20.56,0,0,1,10.48,3.21,32.32,32.32,0,0,1,7.19,5.81c2.09,2.33,3.58,6.28,4.46,9.19l.15.5L325.5,480l-5.08,2.55-13.9,8.24-7.23,3.61-.5-1c0,.31,0,.64,0,1-.14,3.4,0,12,.05,15v7.18l-7.49,1.06-18.24,1.37Zm10-48-.17,15.29c-.13,1.41-.28,3.24-.3,3.74-.1,2.62.07,7.42.28,11.8l2.79-.21c0-3.07,0-6.34.07-8.37.31-7.55,1.24-12.72,2.94-16.27a20,20,0,0,1,1.82-3.08l-1.31.44-2.89-3.61Z" transform="translate(-96.49 -354.83)"/><path class="cls-7" d="M316.54,475.45l-13.64,8.12a13.6,13.6,0,0,0-2.44-4.42,4.59,4.59,0,0,0-3.3-1.92c-1.65-.07-3.1,1.18-4.33,3.74s-1.91,6.84-2.16,13.11q-.27,6.59,0,15.53L272.14,511a152.47,152.47,0,0,1-.77-20.81c0-1,.15-2.38.32-4.14l.22-22,14.87-1.24,2,2.57c1.79-.53,3.43-1,4.94-1.34s2.93-.65,4.24-.84a20,20,0,0,1,3.82-.23,12.65,12.65,0,0,1,6.48,2,24.8,24.8,0,0,1,5.5,4.38A12.52,12.52,0,0,1,316.54,475.45Z" transform="translate(-96.49 -354.83)"/></g><path class="cls-8" d="M258.78,461.25a20.19,20.19,0,0,1,5.61,5.51,39.32,39.32,0,0,1,3.86,6.5c.91,2,1.51,3.43,1.8,4.3l-18,4a3.88,3.88,0,0,0-2.58-3.2,12.9,12.9,0,0,0-4.47-.78q-12.33,1.17-12.33,14.71.34,10.74,6.75,12a10.4,10.4,0,0,0,5.54-1.51,14.26,14.26,0,0,0,4.24-4,24.07,24.07,0,0,0,2.94-5.61l18,3.64c-.2.65-.67,1.94-1.41,3.88q-1.26,3.25-5.9,8.7a25.83,25.83,0,0,1-10.32,7.62,37.2,37.2,0,0,1-13.59,2.67,28.87,28.87,0,0,1-19.14-7,19.75,19.75,0,0,1-5.51-7.67,24.93,24.93,0,0,1-1.72-9.23,35.86,35.86,0,0,1,1.41-9.95,51.82,51.82,0,0,1,3.44-8.94,44.84,44.84,0,0,1,5.88-9,33.89,33.89,0,0,1,6.73-6.06,27.16,27.16,0,0,1,7.21-3.48,25.62,25.62,0,0,1,7.42-1.11A25.91,25.91,0,0,1,258.78,461.25Z" transform="translate(-96.49 -354.83)"/><path class="cls-9" d="M238.93,527.7c-8.8,0-20.53-6.57-23.11-8.09l-1.11-.6-.93-1c-1.21-1.32-5.45-6.11-7-10.11a33,33,0,0,1-2.29-12.19,44.24,44.24,0,0,1,1.72-12.18,59.7,59.7,0,0,1,4-10.36,52.66,52.66,0,0,1,7-10.59,42.17,42.17,0,0,1,8.35-7.51,35.43,35.43,0,0,1,9.36-4.49,33.78,33.78,0,0,1,9.77-1.46c6.53,0,15.69,4,17.46,4.79l.54.27.62.34.57.46a43,43,0,0,1,7.15,7.13,47.66,47.66,0,0,1,4.62,7.84c1,2.18,1.94,4.62,2,4.73l.13.35,1.08,3.23-3.12,6.07-3.89,1.17-7.94,1.75,7.7,1.56,3.71.57,3.86,6.88-1.41,3.4c-.22.62-.79,2.24-1.42,3.9-1.21,3.12-3.53,6.62-7.3,11a33.79,33.79,0,0,1-13.57,9.93A45.42,45.42,0,0,1,238.93,527.7Zm-14-21.49a67.34,67.34,0,0,0,9.26,4.22c-2-1.61-9.33-8.05-9.64-17.9v-.26c0-13.5,14.62-20.92,16.9-22l2.2-1.1,2.3.35a27.44,27.44,0,0,1,6.26,1.21,10.57,10.57,0,0,1,3.09,1.79l2.81-.62-.33-.47a26.13,26.13,0,0,0-3.3-3.24c-3.47-1.47-8.05-2.95-9.85-2.95a17.6,17.6,0,0,0-5.08.77,19.33,19.33,0,0,0-5.06,2.46,26,26,0,0,0-5.1,4.63,37,37,0,0,0-4.79,7.34,43.92,43.92,0,0,0-2.88,7.5,28.23,28.23,0,0,0-1.09,7.72,16.78,16.78,0,0,0,1.16,6.26A27.85,27.85,0,0,0,225,506.21Zm31.58-4c-.25.41-.5.8-.75,1.14a22,22,0,0,1-6.42,6.1l.21-.08a17.58,17.58,0,0,0,7.1-5.33c.48-.56.9-1.07,1.28-1.54Zm-15.79-10.08A6.23,6.23,0,0,0,241.8,495a8.52,8.52,0,0,0,.8-1,38.93,38.93,0,0,0,2.1-4.13l1-2.47-.32-.77C243,488.33,240.85,490.53,240.75,492.16Z" transform="translate(-96.49 -354.83)"/><path class="cls-4" d="M258.78,461.25a20.19,20.19,0,0,1,5.61,5.51,39.32,39.32,0,0,1,3.86,6.5c.91,2,1.51,3.43,1.8,4.3l-18,4a3.88,3.88,0,0,0-2.58-3.2,12.9,12.9,0,0,0-4.47-.78q-12.33,1.17-12.33,14.71.34,10.74,6.75,12a10.4,10.4,0,0,0,5.54-1.51,14.26,14.26,0,0,0,4.24-4,24.07,24.07,0,0,0,2.94-5.61l18,3.64c-.2.65-.67,1.94-1.41,3.88q-1.26,3.25-5.9,8.7a25.83,25.83,0,0,1-10.32,7.62,37.2,37.2,0,0,1-13.59,2.67,28.87,28.87,0,0,1-19.14-7,19.75,19.75,0,0,1-5.51-7.67,24.93,24.93,0,0,1-1.72-9.23,35.86,35.86,0,0,1,1.41-9.95,51.82,51.82,0,0,1,3.44-8.94,44.84,44.84,0,0,1,5.88-9,33.89,33.89,0,0,1,6.73-6.06,27.16,27.16,0,0,1,7.21-3.48,25.62,25.62,0,0,1,7.42-1.11A25.91,25.91,0,0,1,258.78,461.25Z" transform="translate(-96.49 -354.83)"/><path class="cls-8" d="M337,493.09l-3.62,22.62-15.7-3.05,6.21-36.38L324,476c.13-.94.24-1.63.35-2.07l1.71-9.92-5.32-.34,3.31-6.36,19-1.68-.77,5.19a23.67,23.67,0,0,1,8.7.41,26.53,26.53,0,0,1,9.85,4.81,11,11,0,0,1,3.31,3.78,11.72,11.72,0,0,1,1.29,4.54,15.54,15.54,0,0,1-.39,4.79,18.8,18.8,0,0,1-1.32,3.74,17.45,17.45,0,0,1-1.9,3.14,11,11,0,0,1-2.25,2.23,27.59,27.59,0,0,1-7.67,4.12,26,26,0,0,1-7.61,1.44A26.74,26.74,0,0,1,337,493.09Zm3.53-21.91a6,6,0,0,0,.15,3.23,5.54,5.54,0,0,0,1.47,2.53,12,12,0,0,0,4.91,2.66,7.72,7.72,0,0,0,4.67-.27,8.83,8.83,0,0,0,3.7-2.67,9.45,9.45,0,0,0,2-3.83,7.75,7.75,0,0,0,.19-2.64,7.57,7.57,0,0,1-3.42,3.09,6.28,6.28,0,0,1-4.2.69,3.54,3.54,0,0,1-1.57-.79,2.62,2.62,0,0,1-.48-2.56,4,4,0,0,1,1.65-2.26,7.19,7.19,0,0,1,3.81-1.16,14.06,14.06,0,0,0-5.41-.29,12.55,12.55,0,0,0-4.63,1.56A7,7,0,0,0,340.56,471.18Z" transform="translate(-96.49 -354.83)"/><path class="cls-9" d="M340.11,525l-8.25-1.37-15.58-3-7.87-1.31,1.32-8,6.86-40.07-1.29-.19-3.74-7.84,2.11-3.51,3.43-6.55,2-3.3,4.25-.61,18.73-1.66,3.84-.54,5.75,5.87,0,.21q.63.11,1.2.24c4.11,1,9.8,4.3,11.9,5.59l.49.25,1.05.87a25.33,25.33,0,0,1,5,6,19.87,19.87,0,0,1,2.17,7.66,23.51,23.51,0,0,1-.6,7.27,26.59,26.59,0,0,1-1.89,5.36,21.83,21.83,0,0,1-5.93,7.8l-.71.71-.81.41a53,53,0,0,1-9.07,4.73,34.46,34.46,0,0,1-10,1.87h-.67Zm-1.72-39.9c.64.11,1.36.22,2.08.31-1-.59-2-1.23-2.84-1.8l-1-.65-.8-1a17.5,17.5,0,0,1-2.86-5.15,16.85,16.85,0,0,1-.54-2.37l-1.62,9.41Zm-4.23-20.59-.37,2.19a13.49,13.49,0,0,1,1.32-1.81l-.37-.43Z" transform="translate(-96.49 -354.83)"/><path class="cls-4" d="M337,493.09l-3.62,22.62-15.7-3.05,6.21-36.38L324,476c.13-.94.24-1.63.35-2.07l1.71-9.92-5.32-.34,3.31-6.36,19-1.68-.77,5.19a23.67,23.67,0,0,1,8.7.41,26.53,26.53,0,0,1,9.85,4.81,11,11,0,0,1,3.31,3.78,11.72,11.72,0,0,1,1.29,4.54,15.54,15.54,0,0,1-.39,4.79,18.8,18.8,0,0,1-1.32,3.74,17.45,17.45,0,0,1-1.9,3.14,11,11,0,0,1-2.25,2.23,27.59,27.59,0,0,1-7.67,4.12,26,26,0,0,1-7.61,1.44A26.74,26.74,0,0,1,337,493.09Zm3.53-21.91a6,6,0,0,0,.15,3.23,5.54,5.54,0,0,0,1.47,2.53,12,12,0,0,0,4.91,2.66,7.72,7.72,0,0,0,4.67-.27,8.83,8.83,0,0,0,3.7-2.67,9.45,9.45,0,0,0,2-3.83,7.75,7.75,0,0,0,.19-2.64,7.57,7.57,0,0,1-3.42,3.09,6.28,6.28,0,0,1-4.2.69,3.54,3.54,0,0,1-1.57-.79,2.62,2.62,0,0,1-.48-2.56,4,4,0,0,1,1.65-2.26,7.19,7.19,0,0,1,3.81-1.16,14.06,14.06,0,0,0-5.41-.29,12.55,12.55,0,0,0-4.63,1.56A7,7,0,0,0,340.56,471.18Z" transform="translate(-96.49 -354.83)"/><path class="cls-8" d="M321.54,472.45l-13.64,8.12a13.6,13.6,0,0,0-2.44-4.42,4.59,4.59,0,0,0-3.3-1.92c-1.65-.07-3.1,1.18-4.33,3.74s-1.91,6.84-2.16,13.11q-.27,6.59,0,15.53L277.14,508a152.47,152.47,0,0,1-.77-20.81c0-1,.15-2.38.32-4.14l.22-22,14.87-1.24,2,2.57c1.79-.53,3.43-1,4.94-1.34s2.93-.65,4.24-.84a20,20,0,0,1,3.82-.23,12.65,12.65,0,0,1,6.48,2,24.8,24.8,0,0,1,5.5,4.38A12.52,12.52,0,0,1,321.54,472.45Z" transform="translate(-96.49 -354.83)"/><path class="cls-9" d="M274.88,516.54l-5.55-4.42-.26-3.55c0-.63-1-15.26-.78-21.7,0-1,.23-3.19.32-4.21l.28-28.55,7.36-1.12,14.61-1.22,4.34-.62,1.63,2h0c1.75-.42,3.41-.75,4.94-1a27.82,27.82,0,0,1,5.35-.31,20.56,20.56,0,0,1,10.48,3.21,32.32,32.32,0,0,1,7.19,5.81c2.09,2.33,3.58,6.28,4.46,9.19l.15.5L330.5,477l-5.08,2.55-13.9,8.24-7.23,3.61-.5-1c0,.31,0,.64,0,1-.14,3.4,0,12,.05,15v7.18l-7.49,1.06-18.24,1.37Zm10-48-.17,15.29c-.13,1.41-.28,3.24-.3,3.74-.1,2.62.07,7.42.28,11.8l2.79-.21c0-3.07,0-6.34.07-8.37.31-7.55,1.24-12.72,2.94-16.27a20,20,0,0,1,1.82-3.08l-1.31.44-2.89-3.61Z" transform="translate(-96.49 -354.83)"/><path class="cls-4" d="M321.54,472.45l-13.64,8.12a13.6,13.6,0,0,0-2.44-4.42,4.59,4.59,0,0,0-3.3-1.92c-1.65-.07-3.1,1.18-4.33,3.74s-1.91,6.84-2.16,13.11q-.27,6.59,0,15.53L277.14,508a152.47,152.47,0,0,1-.77-20.81c0-1,.15-2.38.32-4.14l.22-22,14.87-1.24,2,2.57c1.79-.53,3.43-1,4.94-1.34s2.93-.65,4.24-.84a20,20,0,0,1,3.82-.23,12.65,12.65,0,0,1,6.48,2,24.8,24.8,0,0,1,5.5,4.38A12.52,12.52,0,0,1,321.54,472.45Z" transform="translate(-96.49 -354.83)"/></g></g></svg>