<?xml version="1.0" encoding="utf-8"?>
<!-- Generator: Adobe Illustrator 25.4.1, SVG Export Plug-In . SVG Version: 6.00 Build 0)  -->
<svg version="1.1" id="Capa_1" xmlns="http://www.w3.org/2000/svg" xmlns:xlink="http://www.w3.org/1999/xlink" x="0px" y="0px"
	 viewBox="0 0 96 84.5" style="enable-background:new 0 0 96 84.5;" xml:space="preserve">
<style type="text/css">
	.st0{fill:#8B8B8C;}
	.st1{fill:#FFFFFF;}
	.st2{fill:#1D1D1B;}
</style>
<g id="Capa_2_00000171691126715748583450000007226111994588554907_">
	<g id="Capa_1-2">
		<path class="st0" d="M50.7,60.4c-1.6-0.1-3.1-0.3-4.6-0.3c-2,0-4,0.1-6,0.3c-3.9,0.3-7.8-0.9-11-3.2c-1.9-1.3-2.2-3.4-1.1-5.9
			c0.7-1.6,1.5-3.1,2.2-4.6c0.6-1.4,0.5-2.9,0-4.4c-0.5-1.7-1.1-3.4-1.5-5.2c-0.1-0.8-0.1-1.6,0.1-2.4c0.3-1.7,1.8-2.4,3.4-1.6
			c0.8,0.5,1.6,1.1,2.2,1.7c0.8,0.7,1.2,0.8,2,0.1c0.7-0.6,1.3-1.3,2-1.8c1.1-0.9,2.3-1.5,3.7-1.1c0.6,0.2,1.1,0.4,1.5,0.8
			c0.7,0.8,1.9,1.1,2.9,0.8c2.6-0.7,4.9,0.7,6.1,2.5c0.9,1.4,2.1,2.1,3.9,1.8c0.4-0.1,0.8-0.1,1.2-0.1c2.2,0,3.5,1.4,3.3,3.6
			c-0.2,1.3-0.6,2.5-1.2,3.5c-0.8,1.5-1,3.1-0.1,4.6c0.6,1,1.2,2,1.9,2.9c1,1.3,0.9,2.5,0.1,3.8c-0.8,1.4-2.2,2.4-3.7,2.9
			C55.6,59.9,53.2,60.5,50.7,60.4z M37.6,40.1c1.5,0.9,12.7,1.9,14.2,1.3C47,41.4,42.4,40.7,37.6,40.1z"/>
		<path class="st1" d="M37.6,40.1c4.8,0.6,9.5,1.3,14.2,1.3C50.3,42,39.1,41,37.6,40.1z"/>
		<circle class="st1" cx="41.2" cy="38.1" r="0.4"/>
		<circle class="st1" cx="48.7" cy="39" r="0.4"/>
		<path class="st2" d="M51.1,32.2c0.6-1.9,1.6-3.7,3-5.2c1.1-1.2,2.6-2.1,4.1-2.6c1.4-0.4,2.9-0.5,4.4-0.1c1.4,0.3,2.7,1,3.7,2
			c1.1,1.1,1.8,2.5,2.1,4.1c0.4,1.7,0.2,3.6-0.4,5.8c-0.3,1.1-0.9,2.1-1.5,3c-0.5,0.8-1.2,1.4-1.9,2c-0.6,0.5-1.3,1-2,1.4l-1.8,0.9
			c-0.5,0.2-1,0.5-1.4,0.8c-0.4,0.2-0.6,0.6-0.8,1l-0.1,0.3l0,0.1l-0.1,0.3l-0.3,1c-0.2,0.6-0.7,1.1-1.4,1.2
			c-0.7,0.1-1.4,0.1-2.1-0.1c-0.7-0.2-1.3-0.5-1.8-1c-0.5-0.3-0.7-0.9-0.6-1.4l0.2-0.6l0.1-0.3l0.1-0.4l0.2-0.9
			c0.2-0.7,0.5-1.4,0.9-1.9c0.3-0.4,0.7-0.7,1.1-0.9c0.9-0.3,1.7-0.6,2.4-1c0.7-0.3,1.4-0.7,2-1.2c0.6-0.5,1.1-1.1,1.6-1.7
			c0.5-0.7,0.8-1.5,1-2.3c0.3-0.7,0.2-1.5-0.2-2.1c-0.3-0.6-0.9-0.9-1.5-1.1c-0.7-0.1-1.4,0.1-2,0.5c-0.7,0.4-1.1,1.2-1.4,2.3
			c-0.1,0.6-0.6,1-1.2,1c-0.7,0.1-1.4,0.1-2.1-0.1c-0.7-0.2-1.3-0.6-1.9-1C51.2,33.4,50.9,32.8,51.1,32.2z M54.6,49.2
			c0.8,0.2,1.5,0.7,1.9,1.4c0.8,1.2,0.5,2.9-0.8,3.7c-0.1,0.1-0.2,0.1-0.3,0.2c-1.5,0.7-3.4,0.2-4.3-1.2c-0.8-1.2-0.5-2.9,0.7-3.7
			c0.1-0.1,0.2-0.1,0.4-0.2C52.9,49,53.8,48.9,54.6,49.2z"/>
	</g>
</g>
</svg>
