<svg xmlns="http://www.w3.org/2000/svg" viewBox="0 0 475 418.23"><defs><style>.cls-1{fill:#768240;}.cls-2{fill:#fff;}.cls-3{fill:#1d1d1b;}</style></defs><g id="Capa_2" data-name="Capa 2"><g id="Capa_1-2" data-name="Capa 1"><path class="cls-1" d="M268.11,418.21c-17.83-1.27-35.66-3.56-53.49-3.56-22.83,0-45.68,1.5-68.48,3-46.66,3-88.62-10.16-126.17-37.11C-1.55,365.07-5.5,340.7,7.26,313.07c8.28-17.92,17.56-35.4,25.25-53.56,7-16.44,5.28-33.63.56-50.48-5.58-19.92-12.17-39.61-16.72-59.75-2-8.73-1.23-18.62.57-27.52C20.94,102,37.86,94,55.57,103.88c9.43,5.24,17.53,13,25.87,20.05,9.36,7.9,13.3,8.77,23,1.06,8.19-6.47,15.22-14.4,23.1-21.29,12.19-10.65,26.1-17.28,42.58-13a40,40,0,0,1,17,9.6c9.89,9.56,20.63,12.93,33.88,9.11,29.48-8.5,55.92,7.91,69.94,28.55,10.73,15.8,24.8,23.85,44.34,20.81a98.52,98.52,0,0,1,14.28-.74c25.78-.19,40.57,15.88,38.49,41.74-1.19,14.83-7.18,27.91-14.25,40.76-9.5,17.26-11.71,35.32-1.62,53.07A304.06,304.06,0,0,0,394.11,327c11.25,14.85,10.88,28.91.78,44.07-10.58,15.88-24,27.61-42.5,33C324.89,412.14,297.13,418.7,268.11,418.21ZM117.84,183.84c17.77,10.65,145.74,22.37,163,14.84C226.5,199.37,173,190.78,117.84,183.84Z"/><path class="cls-2" d="M117.84,183.84c55.12,6.94,108.66,15.53,163,14.84C263.58,206.21,135.61,194.49,117.84,183.84Z"/><circle class="cls-2" cx="158.84" cy="161.56" r="4.68"/><circle class="cls-2" cx="245.74" cy="172.07" r="4.68"/><path class="cls-3" d="M272.72,93.25q11.79-37.44,33.92-59.47t47.5-29.54a98.4,98.4,0,0,1,50.63-1.73,87.34,87.34,0,0,1,43.14,23.61Q465.78,44,472.51,73.06t-4.69,67.22Q460.8,161,450.57,175a127.91,127.91,0,0,1-21.72,23.57,132.53,132.53,0,0,1-23.11,15.51q-11.64,6-21.25,11a184.22,184.22,0,0,0-16.57,9.45Q361,239,359,245.85l-1,3.41-.3,1L356.71,254l-3.2,11.27q-3.81,11.38-15.71,13.38a51.79,51.79,0,0,1-24.14-1.78,55.48,55.48,0,0,1-21-11.65q-8.81-7.89-6.94-16.42l1.86-6.55,1.12-3.93,1.42-5L293,223.09q4.17-14.67,10.9-22.39c4.49-5.15,8.87-8.61,13.17-10.42Q332.17,185,345.19,179a107.34,107.34,0,0,0,23.34-14.32,94,94,0,0,0,18-19.51A79.87,79.87,0,0,0,398,118.72q4.69-14.52-2-24.66T378.21,81.91q-11.06-2-22.71,5.15T339,113.24q-2.16,9.58-13.8,11.65a50,50,0,0,1-23.87-1.7,59.2,59.2,0,0,1-21.57-11.8Q270.41,103.35,272.72,93.25Zm40.62,195.68q14.67,4.19,22.28,16.26t3.88,25.18q-3.74,13.11-16.56,19.37t-27.5,2.08q-14.69-4.17-22.29-16.25t-3.88-25.19Q273,297.28,285.83,291T313.34,288.93Z"/></g></g></svg>